<svg width="30" height="30" viewBox="0 0 30 30" fill="none" xmlns="http://www.w3.org/2000/svg">
<path d="M3.75 7.5C3.55109 7.5 3.36032 7.57902 3.21967 7.71967C3.07902 7.86032 3 8.05109 3 8.25C3 8.44891 3.07902 8.63968 3.21967 8.78033C3.36032 8.92098 3.55109 9 3.75 9H26.25C26.4489 9 26.6397 8.92098 26.7803 8.78033C26.921 8.63968 27 8.44891 27 8.25C27 8.05109 26.921 7.86032 26.7803 7.71967C26.6397 7.57902 26.4489 7.5 26.25 7.5H3.75ZM3.75 12C3.55109 12 3.36032 12.079 3.21967 12.2197C3.07902 12.3603 3 12.5511 3 12.75C3 12.9489 3.07902 13.1397 3.21967 13.2803C3.36032 13.421 3.55109 13.5 3.75 13.5H26.25C26.4489 13.5 26.6397 13.421 26.7803 13.2803C26.921 13.1397 27 12.9489 27 12.75C27 12.5511 26.921 12.3603 26.7803 12.2197C26.6397 12.079 26.4489 12 26.25 12H3.75ZM3 17.25C3 17.0511 3.07902 16.8603 3.21967 16.7197C3.36032 16.579 3.55109 16.5 3.75 16.5H26.25C26.4489 16.5 26.6397 16.579 26.7803 16.7197C26.921 16.8603 27 17.0511 27 17.25C27 17.4489 26.921 17.6397 26.7803 17.7803C26.6397 17.921 26.4489 18 26.25 18H3.75C3.55109 18 3.36032 17.921 3.21967 17.7803C3.07902 17.6397 3 17.4489 3 17.25ZM3.75 21C3.55109 21 3.36032 21.079 3.21967 21.2197C3.07902 21.3603 3 21.5511 3 21.75C3 21.9489 3.07902 22.1397 3.21967 22.2803C3.36032 22.421 3.55109 22.5 3.75 22.5H18.75C18.9489 22.5 19.1397 22.421 19.2803 22.2803C19.421 22.1397 19.5 21.9489 19.5 21.75C19.5 21.5511 19.421 21.3603 19.2803 21.2197C19.1397 21.079 18.9489 21 18.75 21H3.75Z" fill="black"/>
</svg>
